<?xml version="1.0" encoding="UTF-8"?>
<svg version="1.1" xmlns="http://www.w3.org/2000/svg" width="231" height="220">
<path d="M0 0 C0.67527237 -0.00335861 1.35054474 -0.00671722 2.04627991 -0.01017761 C4.28217405 -0.01968565 6.51799314 -0.02163134 8.75390625 -0.02270508 C10.31510448 -0.02592024 11.8763024 -0.02928451 13.4375 -0.03279114 C16.71599016 -0.03878379 19.99445397 -0.04063115 23.27294922 -0.04003906 C27.4475858 -0.039938 31.62205015 -0.05353143 35.79664612 -0.07081127 C39.0259883 -0.08200946 42.25529006 -0.08395581 45.48464966 -0.08342934 C47.02182605 -0.08459997 48.5590038 -0.08896948 50.09616089 -0.0967617 C65.70518683 -0.16841391 79.58758347 0.97887727 91.5 12.14526367 C99.30166283 20.73548167 102.5257868 31.14789544 102.4460144 42.61485291 C102.21972863 47.03275373 101.32859291 51.27730215 100.41796875 55.59838867 C100.20113434 56.65286194 99.98429993 57.70733521 99.76089478 58.79376221 C96.43104199 74.70738206 92.69871014 90.53578166 88.98632812 106.36352539 C87.89394307 111.02254506 86.81346416 115.68424423 85.73561668 120.34664536 C84.89562935 123.97169717 84.04782891 127.59488814 83.1978035 131.21759796 C82.7955212 132.93769407 82.39604004 134.65844792 81.99949265 136.37987518 C81.44845347 138.76819817 80.88650801 141.15370133 80.32177734 143.53881836 C80.08324287 144.58905434 80.08324287 144.58905434 79.83988953 145.6605072 C78.53515362 151.08937027 76.69946825 155.40500658 72.234375 158.87182617 C71.34177979 159.57480835 71.34177979 159.57480835 70.43115234 160.29199219 C69.79516113 160.77982178 69.15916992 161.26765137 68.50390625 161.77026367 C67.50738037 162.5513147 67.50738037 162.5513147 66.49072266 163.34814453 C64.43843744 164.95481984 62.37813583 166.55073382 60.31640625 168.14526367 C57.93842725 169.99563443 55.56408047 171.85059711 53.19140625 173.70776367 C52.61390625 174.15861328 52.03640625 174.60946289 51.44140625 175.07397461 C47.54611048 178.13112528 43.75846848 181.29257575 40.00390625 184.52026367 C32.98708444 190.54750562 25.62904377 196.11448618 18.23828125 201.67236328 C16.21879404 203.1332983 16.21879404 203.1332983 14.41252136 205.20794678 C9.70672666 208.15248057 5.30076165 207.67912009 -0.14331055 207.61523438 C-1.88059921 207.61851997 -1.88059921 207.61851997 -3.65298462 207.62187195 C-7.47988467 207.62418287 -11.30601506 207.59793008 -15.1328125 207.57104492 C-17.78889692 207.56612217 -20.44494407 207.56267327 -23.10102844 207.56108093 C-28.66519258 207.5546394 -34.22913638 207.53341159 -39.79321289 207.50195312 C-46.93928027 207.461604 -54.0852044 207.44425588 -61.23137188 207.43464375 C-68.03187497 207.42546054 -74.8323382 207.40478612 -81.6328125 207.38354492 C-82.93757727 207.38014917 -84.24234203 207.37675343 -85.58664513 207.37325478 C-89.261834 207.36172493 -92.93691476 207.34321225 -96.61206055 207.32226562 C-97.70975266 207.31957672 -98.80744476 207.31688782 -99.93840027 207.31411743 C-100.93520813 207.30696213 -101.93201599 207.29980682 -102.95903015 207.29243469 C-104.26284401 207.28602447 -104.26284401 207.28602447 -105.59299755 207.27948475 C-107.68359375 207.14526367 -107.68359375 207.14526367 -109.68359375 206.14526367 C-109.08678225 199.77333004 -108.03220374 193.73312395 -106.52563477 187.51855469 C-106.30746597 186.59959412 -106.08929718 185.68063354 -105.86451721 184.73382568 C-105.14395508 181.70436298 -104.41575745 178.6767911 -103.6875 175.64916992 C-103.17432523 173.49831767 -102.66163456 171.34734987 -102.1493988 169.1962738 C-100.79514254 163.51491489 -99.43443773 157.83511973 -98.07232666 152.15563965 C-96.46005397 145.42761394 -94.85561984 138.6977154 -93.25012779 131.96806908 C-91.93494614 126.45716902 -90.61705303 120.94694592 -89.29312134 115.43814087 C-86.99601324 105.8737335 -84.70948247 96.30804744 -82.50887775 86.72089863 C-81.60711013 82.79264229 -80.69654214 78.86644623 -79.78581047 74.94025993 C-79.36554737 73.11535946 -78.95007627 71.28934785 -78.53973579 69.46219063 C-77.9783523 66.96295027 -77.40096207 64.46791009 -76.82006836 61.97314453 C-76.66189825 61.24729345 -76.50372814 60.52144238 -76.340765 59.77359581 C-74.61106533 52.49229532 -70.78272713 48.9801544 -64.93359375 44.64526367 C-59.80271382 40.79085373 -54.77658923 36.83251539 -49.80859375 32.77026367 C-42.68933514 26.95703142 -35.5260462 21.20186485 -28.34082031 15.47045898 C-26.81358109 14.24920758 -25.29131895 13.02173897 -23.76953125 11.79370117 C-9.18440718 0.02866152 -9.18440718 0.02866152 0 0 Z M-20.68359375 55.14526367 C-21.34532342 57.27752492 -21.89120664 59.4458194 -22.390625 61.62182617 C-22.63338921 62.66154823 -22.63338921 62.66154823 -22.88105774 63.72227478 C-23.42735756 66.06983898 -23.96178993 68.41994236 -24.49609375 70.77026367 C-25.08006885 73.30307858 -25.66655019 75.83530524 -26.25317383 78.36750793 C-26.68076581 80.21410965 -27.10732511 82.06095073 -27.53295898 83.90800476 C-29.37087583 91.86316168 -31.28180066 99.79973833 -33.203125 107.73510742 C-34.10636708 111.48455333 -35.00853218 115.23425654 -35.9102478 118.98406982 C-36.50886596 121.46537534 -37.11077232 123.94588989 -37.7159729 126.42559814 C-38.57154872 129.93538913 -39.41407919 133.44808242 -40.25390625 136.96166992 C-40.51488602 138.01845444 -40.77586578 139.07523895 -41.04475403 140.16404724 C-41.39215889 141.63310265 -41.39215889 141.63310265 -41.74658203 143.13183594 C-42.05560959 144.40886131 -42.05560959 144.40886131 -42.37088013 145.71168518 C-42.87210478 148.5871795 -42.87210478 148.5871795 -41.68359375 153.14526367 C-20.56359375 153.14526367 0.55640625 153.14526367 22.31640625 153.14526367 C27.0127712 136.94425021 27.0127712 136.94425021 31.16796875 120.62963867 C31.39414886 119.67865295 31.62032898 118.72766724 31.85336304 117.74786377 C32.55385412 114.79803514 33.24780915 111.84671986 33.94140625 108.89526367 C34.40971812 106.91859732 34.87846732 104.94203453 35.34765625 102.96557617 C36.25419726 99.14395339 37.15590319 95.32124194 38.05371094 91.49755859 C38.86424934 88.04912908 39.6873559 84.6041948 40.52441406 81.16210938 C40.71047211 80.39074646 40.89653015 79.61938354 41.08822632 78.824646 C41.42960742 77.41090866 41.77451926 75.99801643 42.12393188 74.58624268 C43.3937145 69.29862906 44.61495019 63.52085365 43.31640625 58.14526367 C41.20544202 55.48698034 40.03003839 54.27565392 36.64694214 53.65751648 C35.63149323 53.66338272 34.61604431 53.66924896 33.56982422 53.67529297 C31.83815506 53.67090462 31.83815506 53.67090462 30.07150269 53.66642761 C28.82974274 53.6839357 27.58798279 53.70144379 26.30859375 53.71948242 C25.03162628 53.72277054 23.75465881 53.72605865 22.43899536 53.72944641 C19.74020486 53.73987119 17.04274378 53.75760336 14.34423828 53.78857422 C10.88284518 53.82822794 7.42179756 53.84619686 3.96020317 53.8558836 C0.65961965 53.8658475 -2.64087614 53.88608837 -5.94140625 53.90698242 C-7.18721466 53.91436935 -8.43302307 53.92175629 -9.71658325 53.92936707 C-10.86472504 53.9422023 -12.01286682 53.95503754 -13.19580078 53.96826172 C-14.20965851 53.97810593 -15.22351624 53.98795013 -16.26809692 53.99809265 C-18.6948332 53.98755374 -18.6948332 53.98755374 -20.68359375 55.14526367 Z " fill="#828282" transform="translate(119.68359375,4.854736328125)"/>
<path d="M0 0 C0.67527237 -0.00335861 1.35054474 -0.00671722 2.04627991 -0.01017761 C4.28217405 -0.01968565 6.51799314 -0.02163134 8.75390625 -0.02270508 C10.31510448 -0.02592024 11.8763024 -0.02928451 13.4375 -0.03279114 C16.71599016 -0.03878379 19.99445397 -0.04063115 23.27294922 -0.04003906 C27.4475858 -0.039938 31.62205015 -0.05353143 35.79664612 -0.07081127 C39.0259883 -0.08200946 42.25529006 -0.08395581 45.48464966 -0.08342934 C47.02182605 -0.08459997 48.5590038 -0.08896948 50.09616089 -0.0967617 C65.70518683 -0.16841391 79.58758347 0.97887727 91.5 12.14526367 C99.24611373 20.67431792 102.650218 31.21689039 102.48583984 42.64355469 C102.16562834 47.37151908 101.17280079 51.9544041 100.19140625 56.58276367 C99.96984863 57.65010742 99.74829102 58.71745117 99.52001953 59.81713867 C98.79755134 63.26252478 98.05781166 66.70390691 97.31640625 70.14526367 C96.93162109 71.96695068 96.93162109 71.96695068 96.5390625 73.82543945 C95.77266973 77.43577851 94.98578503 81.04098925 94.19140625 84.64526367 C93.82958252 86.34573853 93.82958252 86.34573853 93.46044922 88.08056641 C93.22471191 89.122854 92.98897461 90.1651416 92.74609375 91.23901367 C92.44034424 92.62636719 92.44034424 92.62636719 92.12841797 94.04174805 C91.8604541 94.7359082 91.59249023 95.43006836 91.31640625 96.14526367 C90.32640625 96.47526367 89.33640625 96.80526367 88.31640625 97.14526367 C88.27773438 96.00250977 88.27773438 96.00250977 88.23828125 94.83666992 C87.89599497 88.60550382 87.11314994 83.72797314 84.26953125 78.16088867 C83.31640625 76.14526367 83.31640625 76.14526367 82.62890625 72.58276367 C79.70820129 64.93329831 72.68304269 61.08432897 65.56640625 57.70776367 C59.95545771 55.22078527 55.13819356 54.03052457 49.00761414 53.98704529 C47.95738571 53.97725647 46.90715729 53.96746765 45.82510376 53.9573822 C44.68358856 53.95162674 43.54207336 53.94587128 42.3659668 53.93994141 C41.15579391 53.93004181 39.94562103 53.92014221 38.69877625 53.90994263 C35.38926585 53.88380623 32.07977891 53.86192311 28.7702291 53.84194064 C25.30820392 53.82002862 21.84622189 53.79266552 18.38423157 53.7658844 C11.83246778 53.7160279 5.28067995 53.67106303 -1.27113074 53.62786204 C-8.73183453 53.57842936 -16.19249501 53.52353365 -23.65315688 53.46818244 C-38.99659578 53.35447055 -54.34007456 53.24760814 -69.68359375 53.14526367 C-68.4029689 51.43776388 -67.06591818 49.77152771 -65.68359375 48.14526367 C-65.02359375 48.14526367 -64.36359375 48.14526367 -63.68359375 48.14526367 C-63.68359375 47.48526367 -63.68359375 46.82526367 -63.68359375 46.14526367 C-62.94109375 45.71213867 -62.19859375 45.27901367 -61.43359375 44.83276367 C-58.59559156 43.31238963 -58.59559156 43.31238963 -56.87109375 40.82104492 C-54.46982996 37.88378475 -51.97958556 35.90269923 -48.93359375 33.64526367 C-43.5879317 29.6329128 -38.36022424 25.49852208 -33.18359375 21.27026367 C-32.51360352 20.72305664 -31.84361328 20.17584961 -31.15332031 19.61206055 C-29.89375593 18.58283464 -28.63500157 17.55261637 -27.37719727 16.52124023 C-25.88889756 15.31206377 -24.37959654 14.12883311 -22.8671875 12.94995117 C-20.48473578 11.10128179 -20.48473578 11.10128179 -18.24609375 8.14526367 C-12.90863637 1.89653308 -8.00785692 0.02498989 0 0 Z " fill="#C1C1C1" transform="translate(119.68359375,4.854736328125)"/>
<path d="M0 0 C12.0212838 -0.13772338 21.56325833 3.41534049 30.3125 11.8125 C33 14.65617433 33 14.65617433 33 17 C34.485 17.495 34.485 17.495 36 18 C45.96498384 34.63121441 39.94623412 57.06791966 35.875 74.6875 C35.6164624 75.89325684 35.3579248 77.09901367 35.09155273 78.34130859 C33.15383183 86.28713396 30.74892172 90.39615425 24 95 C23.00097656 95.78503906 22.00195312 96.57007813 20.97265625 97.37890625 C20.01230469 98.09949219 19.05195313 98.82007813 18.0625 99.5625 C12.76333864 103.5779743 7.61568065 107.75383041 2.5 112 C-2.70478563 116.30839614 -7.92204134 120.5943163 -13.25 124.75 C-14.74273437 125.91789062 -14.74273437 125.91789062 -16.265625 127.109375 C-18.82222401 128.8770806 -21.11935938 129.89391095 -24 131 C-25.72960384 132.24283288 -25.72960384 132.24283288 -27.1875 133.625 C-30 136 -30 136 -32 136 C-31.53896149 129.54546081 -30.20655398 123.48498004 -28.58740234 117.23852539 C-27.12552373 111.58579604 -25.8785809 105.90504641 -24.7109375 100.18359375 C-24.21701623 97.97180347 -23.64294387 95.77701248 -23.0078125 93.6015625 C-21.73876795 89.06644981 -20.94282215 84.50927479 -20.14453125 79.87304688 C-19.60935937 76.87781073 -19.01469927 74.04170969 -18.00219727 71.16870117 C-16.96175051 67.87906452 -16.54127735 64.88912572 -16.18359375 61.4609375 C-15.08981667 52.28192251 -12.94115567 43.37383144 -10.74145508 34.40625 C-10.05253691 31.58418752 -9.38627536 28.75733601 -8.72070312 25.9296875 C-8.28520383 24.13248491 -7.84840481 22.33559666 -7.41015625 20.5390625 C-7.11468651 19.27215073 -7.11468651 19.27215073 -6.81324768 17.97964478 C-6.3070124 15.95926111 -5.66536138 13.9737068 -5 12 C-4.01 11.67 -3.02 11.34 -2 11 C-2.04125 9.9275 -2.0825 8.855 -2.125 7.75 C-2.0074255 4.22276513 -1.65152093 2.938927 0 0 Z " fill="#A4A4A4" transform="translate(165,71)"/>
<path d="M0 0 C0.66 0.33 1.32 0.66 2 1 C-2.71532439 5.29065232 -7.60729215 9.32195078 -12.625 13.25 C-13.51457397 13.94706055 -13.51457397 13.94706055 -14.42211914 14.65820312 C-17.54914419 17.1021422 -20.68818103 19.52932944 -23.83984375 21.94140625 C-24.46358887 22.42254883 -25.08733398 22.90369141 -25.72998047 23.39941406 C-26.9134429 24.3120014 -28.10100746 25.21930479 -29.29345703 26.12011719 C-32.14068018 28.32196976 -34.48632093 30.48723688 -36.71484375 33.32421875 C-37.46894531 34.20722656 -38.22304688 35.09023438 -39 36 C-39.99 36 -40.98 36 -42 36 C-42 36.66 -42 37.32 -42 38 C-43.62626404 39.38232443 -45.2925002 40.71937515 -47 42 C-46.37530886 42.00238835 -45.75061771 42.00477671 -45.10699654 42.00723743 C-29.87337882 42.06649637 -14.63993642 42.14211561 0.59350395 42.23571491 C7.96043335 42.28058945 15.3273153 42.32002309 22.69433594 42.34643555 C29.11900157 42.36948349 35.54351601 42.40295667 41.96806157 42.44870156 C45.36659712 42.47254274 48.76498379 42.49133085 52.16360092 42.49761391 C55.96720204 42.50727255 59.77026308 42.53535486 63.57373047 42.56762695 C64.68791855 42.56619186 65.80210663 42.56475677 66.95005798 42.5632782 C79.55706694 42.71400806 91.19876234 46.68809086 100.875 55 C105.49383609 59.91861631 107.02536368 66.7089066 109 73 C109.33 73.66 109.66 74.32 110 75 C110.20431595 76.78776459 110.36530323 78.58064663 110.5 80.375 C110.76077149 84.19271202 110.76077149 84.19271202 111.56616211 87.91357422 C112.06323594 90.30411612 111.81198234 91.75207066 111.22265625 94.109375 C110.94711914 95.24052734 110.94711914 95.24052734 110.66601562 96.39453125 C110.36727539 97.56048828 110.36727539 97.56048828 110.0625 98.75 C109.86720703 99.54277344 109.67191406 100.33554688 109.47070312 101.15234375 C108.98875921 103.10362885 108.49547912 105.05210783 108 107 C107.67 107 107.34 107 107 107 C107.03480469 105.74445313 107.06960937 104.48890625 107.10546875 103.1953125 C107.5723387 86.22125526 107.5723387 86.22125526 99.8125 71.625 C98.884375 70.75875 97.95625 69.8925 97 69 C96.4946875 68.51273437 95.989375 68.02546875 95.46875 67.5234375 C86.87665523 59.62033146 78.58157737 57.19968237 67 57 C66.01 61.95 66.01 61.95 65 67 C64.34 67 63.68 67 63 67 C63.165 65.906875 63.33 64.81375 63.5 63.6875 C63.92511399 60.18656128 64.15623044 56.71323539 64.25 53.1875 C64.27578125 52.27355469 64.3015625 51.35960937 64.328125 50.41796875 C64.19037355 48.0019108 64.19037355 48.0019108 62.84501648 46.37016296 C60.23578835 44.43247418 58.38175567 44.63910845 55.15161133 44.65942383 C53.9505928 44.65965042 52.74957428 44.65987701 51.51216125 44.66011047 C50.21521835 44.67559433 48.91827545 44.69107819 47.58203125 44.70703125 C46.24110895 44.71262766 44.90018051 44.71689755 43.55924988 44.71989441 C40.03275569 44.73133982 36.50663316 44.76080382 32.98028564 44.79400635 C29.38078845 44.82471411 25.7812311 44.83840122 22.18164062 44.85351562 C15.12094186 44.88567421 8.06049521 44.93686655 1 45 C0.86380249 46.7468811 0.86380249 46.7468811 0.72485352 48.52905273 C-0.07319193 55.65802158 -1.90649794 62.57769586 -3.59765625 69.53515625 C-3.95542834 71.02433506 -4.31271511 72.51363054 -4.66954041 74.0030365 C-5.60342031 77.89541073 -6.5438232 81.78617954 -7.48565674 85.67663574 C-8.44820732 89.65781257 -9.40449284 93.64049334 -10.36132812 97.62304688 C-12.23480418 105.41683854 -14.11518349 113.20894313 -16 121 C-16.33 121 -16.66 121 -17 121 C-17.27397593 114.48546123 -16.28121452 108.81861264 -14.75 102.5 C-14.4099292 101.05294678 -14.4099292 101.05294678 -14.06298828 99.57666016 C-13.38659415 96.71491966 -12.69662511 93.85687692 -12 91 C-11.80825195 90.21334961 -11.61650391 89.42669922 -11.41894531 88.61621094 C-10.02208563 82.91936427 -8.59330268 77.23122374 -7.0859375 71.5625 C-6.81007812 70.510625 -6.53421875 69.45875 -6.25 68.375 C-6.00765625 67.47523437 -5.7653125 66.57546875 -5.515625 65.6484375 C-4.94397961 62.71225889 -4.91248892 59.98412786 -5 57 C-5.94875 56.79246094 -6.8975 56.58492187 -7.875 56.37109375 C-18.03968431 54.08826606 -28.0083065 51.3224632 -37.97460938 48.28686523 C-38.95880859 47.99110596 -39.94300781 47.69534668 -40.95703125 47.390625 C-41.83335205 47.12282227 -42.70967285 46.85501953 -43.61254883 46.57910156 C-46.238433 45.84284988 -46.238433 45.84284988 -50 46 C-52.33028406 49.49542609 -52.78056632 52.63771882 -53.4375 56.6875 C-54.43095593 62.4277541 -55.65307345 67.63559645 -58 73 C-59.89911753 67.49231389 -57.64120235 62.0228782 -56.3125 56.5625 C-56.05533203 55.43005859 -55.79816406 54.29761719 -55.53320312 53.13085938 C-55.1397168 51.49020508 -55.1397168 51.49020508 -54.73828125 49.81640625 C-54.50149658 48.82068604 -54.26471191 47.82496582 -54.02075195 46.79907227 C-51.96260692 41.15529498 -47.96143881 37.99172622 -43.25 34.5 C-38.11912119 30.6455909 -33.09296924 26.68728372 -28.125 22.625 C-20.97388968 16.78511422 -13.77866245 11.00300677 -6.56103516 5.24560547 C-4.37234297 3.49917013 -2.18608777 1.7496936 0 0 Z " fill="#474747" transform="translate(98,15)"/>
<path d="M0 0 C0.33 0 0.66 0 1 0 C0.4843795 6.18744601 -0.66605916 11.88326088 -2.24609375 17.8828125 C-2.99441552 20.97690975 -3.52363225 24.04107102 -4 27.1875 C-4.5567191 30.76905953 -5.25784137 34.03398535 -6.5 37.4375 C-7.79168943 41.01053145 -8.42373358 44.42291064 -8.9375 48.1875 C-9.78359655 54.28943357 -11.30820706 60.01794928 -13.09765625 65.90625 C-13.88277212 68.59807585 -14.50108246 71.24309481 -15 74 C-14.46890625 73.57847656 -13.9378125 73.15695313 -13.390625 72.72265625 C-12.33101562 71.90087891 -12.33101562 71.90087891 -11.25 71.0625 C-10.20585937 70.24458984 -10.20585937 70.24458984 -9.140625 69.41015625 C-7.03907872 68.02574346 -5.45678201 67.43713013 -3 67 C-4.62508086 68.72992479 -6.27670002 70.37004999 -8 72 C-8.60979423 72.59075852 -9.21958845 73.18151705 -9.84786129 73.79017735 C-16.08277429 79.27224782 -20.80777369 79.98424339 -28.94555664 79.79467773 C-30.10754578 79.79569992 -31.26953491 79.79672211 -32.46673584 79.79777527 C-36.2821617 79.79292418 -40.0951519 79.73859282 -43.91015625 79.68359375 C-46.56534371 79.67052866 -49.22039878 79.66022437 -51.87559509 79.65357971 C-58.13371153 79.63189789 -64.3909631 79.57455919 -70.64870018 79.50413328 C-77.77803386 79.42565491 -84.90741075 79.3873448 -92.03706944 79.35226524 C-106.69182399 79.27926794 -121.34589988 79.15629196 -136 79 C-136 78.67 -136 78.34 -136 78 C-124.2084068 77.82799923 -112.41674106 77.66154538 -100.625 77.5 C-99.75828171 77.48812275 -98.89156342 77.4762455 -97.99858093 77.46400833 C-71.33107493 77.10025186 -44.67042066 76.84025273 -18 77 C-18.0714624 76.05962891 -18.1429248 75.11925781 -18.21655273 74.15039062 C-18.97342617 63.58592188 -19.1198239 53.08818047 -19.0625 42.5 C-19.041875 37.055 -19.02125 31.61 -19 26 C-36.82 26 -54.64 26 -73 26 C-72.38681207 19.86812073 -71.86438614 14.70662162 -70.4375 8.875 C-70.16808594 7.75867188 -69.89867188 6.64234375 -69.62109375 5.4921875 C-69.41613281 4.66976562 -69.21117188 3.84734375 -69 3 C-68.34 3 -67.68 3 -67 3 C-67.39822174 7.52715239 -67.89410264 11.91236528 -69.0625 16.3125 C-70.16426585 20.01197772 -70.16426585 20.01197772 -70 24 C-38.32 24.495 -38.32 24.495 -6 25 C-4.68 19.39 -3.36 13.78 -2 8 C-1.34 5.36 -0.68 2.72 0 0 Z " fill="#4C4C4C" transform="translate(148,133)"/>
<path d="M0 0 C14.82324541 -0.57669687 27.31602676 2.07081691 38.875 12 C43.49383609 16.91861631 45.02536368 23.7089066 47 30 C47.495 30.99 47.495 30.99 48 32 C48.20431595 33.78776459 48.36530323 35.58064663 48.5 37.375 C48.76077149 41.19271202 48.76077149 41.19271202 49.56616211 44.91357422 C50.06323594 47.30411612 49.81198234 48.75207066 49.22265625 51.109375 C48.94711914 52.24052734 48.94711914 52.24052734 48.66601562 53.39453125 C48.46685547 54.17183594 48.26769531 54.94914062 48.0625 55.75 C47.86720703 56.54277344 47.67191406 57.33554688 47.47070312 58.15234375 C46.98875921 60.10362885 46.49547912 62.05210783 46 64 C45.67 64 45.34 64 45 64 C45.03480469 62.74445313 45.06960937 61.48890625 45.10546875 60.1953125 C45.5723387 43.22125526 45.5723387 43.22125526 37.8125 28.625 C36.884375 27.75875 35.95625 26.8925 35 26 C34.4946875 25.51273438 33.989375 25.02546875 33.46875 24.5234375 C24.87665523 16.62033146 16.58157737 14.19968237 5 14 C4.34 17.3 3.68 20.6 3 24 C2.34 24 1.68 24 1 24 C1.75182482 16.48175182 1.75182482 16.48175182 3.0625 13.9375 C4.79443261 10.3581726 4.19418805 6.4758292 3.6875 2.625 C3.460625 2.08875 3.23375 1.5525 3 1 C2.01 0.67 1.02 0.34 0 0 Z " fill="#696969" transform="translate(160,58)"/>
<path d="M0 0 C0.66 0.33 1.32 0.66 2 1 C-2.71532439 5.29065232 -7.60729215 9.32195078 -12.625 13.25 C-13.51457397 13.94706055 -13.51457397 13.94706055 -14.42211914 14.65820312 C-17.54914419 17.1021422 -20.68818103 19.52932944 -23.83984375 21.94140625 C-24.46358887 22.42254883 -25.08733398 22.90369141 -25.72998047 23.39941406 C-26.9134429 24.3120014 -28.10100746 25.21930479 -29.29345703 26.12011719 C-32.14068018 28.32196976 -34.48632093 30.48723688 -36.71484375 33.32421875 C-37.46894531 34.20722656 -38.22304688 35.09023438 -39 36 C-39.99 36 -40.98 36 -42 36 C-42 36.66 -42 37.32 -42 38 C-43.62626404 39.38232443 -45.2925002 40.71937515 -47 42 C-46.44100856 42.00423194 -45.88201712 42.00846388 -45.30608654 42.01282406 C-31.71065359 42.11608531 -18.11527343 42.22477832 -4.51993084 42.33933926 C2.05464801 42.39457498 8.62923131 42.4479961 15.20385742 42.49731445 C21.5451216 42.54494831 27.88633081 42.59729088 34.22752953 42.65294075 C36.65049056 42.67336872 39.07346668 42.69208106 41.49645424 42.70907402 C44.88221324 42.73310812 48.26786798 42.76316424 51.65356445 42.79467773 C52.66200912 42.8004332 53.6704538 42.80618866 54.7094574 42.81211853 C56.09135757 42.82680176 56.09135757 42.82680176 57.50117493 42.84178162 C58.70273208 42.85146044 58.70273208 42.85146044 59.92856312 42.8613348 C62 43 62 43 65 44 C67.52003857 47.44847383 67.15901 50.86573995 67 55 C66.01 55.495 66.01 55.495 65 56 C64.87882812 55.28972656 64.75765625 54.57945313 64.6328125 53.84765625 C64.46523437 52.92855469 64.29765625 52.00945312 64.125 51.0625 C63.96257812 50.14597656 63.80015625 49.22945312 63.6328125 48.28515625 C63.31957031 47.15400391 63.31957031 47.15400391 63 46 C60.70528847 44.85264424 59.42696978 44.87429438 56.87612915 44.87301636 C56.01250259 44.87019653 55.14887604 44.86737671 54.25907898 44.86447144 C53.30942764 44.86649567 52.35977631 44.8685199 51.38134766 44.87060547 C49.88362068 44.86797699 49.88362068 44.86797699 48.3556366 44.86529541 C45.04176109 44.8608799 41.72793859 44.86381429 38.4140625 44.8671875 C36.11721791 44.86651427 33.8203734 44.86554408 31.52352905 44.86428833 C26.70317915 44.86281168 21.88284775 44.86496449 17.0625 44.86962891 C10.87948441 44.87531976 4.69651229 44.87205105 -1.48650169 44.86605644 C-6.23221159 44.8624445 -10.97791117 44.86359245 -15.72362137 44.86618423 C-18.00342438 44.86685208 -20.28322832 44.86603004 -22.56303024 44.86370468 C-25.74956495 44.86116853 -28.93602914 44.86503274 -32.12255859 44.87060547 C-33.06816147 44.86858124 -34.01376434 44.86655701 -34.98802185 44.86447144 C-36.29192116 44.86870117 -36.29192116 44.86870117 -37.62216187 44.87301636 C-38.75207078 44.8735819 -38.75207078 44.8735819 -39.90480614 44.87415886 C-42.00780297 44.93568124 -42.00780297 44.93568124 -44.02361488 45.50793648 C-46 46 -46 46 -50 46 C-52.33028406 49.49542609 -52.78056632 52.63771882 -53.4375 56.6875 C-54.43095593 62.4277541 -55.65307345 67.63559645 -58 73 C-59.89911753 67.49231389 -57.64120235 62.0228782 -56.3125 56.5625 C-56.05533203 55.43005859 -55.79816406 54.29761719 -55.53320312 53.13085938 C-55.1397168 51.49020508 -55.1397168 51.49020508 -54.73828125 49.81640625 C-54.50149658 48.82068604 -54.26471191 47.82496582 -54.02075195 46.79907227 C-51.96260692 41.15529498 -47.96143881 37.99172622 -43.25 34.5 C-38.11912119 30.6455909 -33.09296924 26.68728372 -28.125 22.625 C-20.97388968 16.78511422 -13.77866245 11.00300677 -6.56103516 5.24560547 C-4.37234297 3.49917013 -2.18608777 1.7496936 0 0 Z " fill="#545454" transform="translate(98,15)"/>
<path d="M0 0 C0.33 0 0.66 0 1 0 C0.72112612 8.39410378 -0.56053549 15.88524614 -3.0625 23.90625 C-3.87887258 26.6002795 -4.50423777 29.23199421 -5 32 C-4.46890625 31.57847656 -3.9378125 31.15695313 -3.390625 30.72265625 C-2.33101562 29.90087891 -2.33101562 29.90087891 -1.25 29.0625 C-0.20585937 28.24458984 -0.20585937 28.24458984 0.859375 27.41015625 C2.96092128 26.02574346 4.54321799 25.43713013 7 25 C5.37491914 26.72992479 3.72329998 28.37004999 2 30 C1.08530866 30.88613779 1.08530866 30.88613779 0.15213871 31.79017735 C-6.08277429 37.27224782 -10.80777369 37.98424339 -18.94555664 37.79467773 C-20.10754578 37.79569992 -21.26953491 37.79672211 -22.46673584 37.79777527 C-26.2821617 37.79292418 -30.0951519 37.73859282 -33.91015625 37.68359375 C-36.56534371 37.67052866 -39.22039878 37.66022437 -41.87559509 37.65357971 C-48.13371153 37.63189789 -54.3909631 37.57455919 -60.64870018 37.50413328 C-67.77803386 37.42565491 -74.90741075 37.3873448 -82.03706944 37.35226524 C-96.69182399 37.27926794 -111.34589988 37.15629196 -126 37 C-126 36.67 -126 36.34 -126 36 C-114.2084068 35.82799923 -102.41674106 35.66154538 -90.625 35.5 C-89.75828171 35.48812275 -88.89156342 35.4762455 -87.99858093 35.46400833 C-61.33107493 35.10025186 -34.67042066 34.84025273 -8 35 C-8 32.03 -8 29.06 -8 26 C-7.34 26 -6.68 26 -6 26 C-5.80664062 25.2265625 -5.61328125 24.453125 -5.4140625 23.65625 C-5.15367187 22.6146875 -4.89328125 21.573125 -4.625 20.5 C-4.35171875 19.40429688 -4.0784375 18.30859375 -3.796875 17.1796875 C-3.33318034 15.32945488 -2.86614898 13.48004027 -2.390625 11.6328125 C-1.39959369 7.77379663 -0.59108101 3.94054008 0 0 Z " fill="#515151" transform="translate(138,175)"/>
<path d="M0 0 C0.66 0 1.32 0 2 0 C1.60177826 4.52715239 1.10589736 8.91236528 -0.0625 13.3125 C-1.16426585 17.01197772 -1.16426585 17.01197772 -1 21 C30.68 21.495 30.68 21.495 63 22 C63.33 21.34 63.66 20.68 64 20 C64 20.99 64 21.98 64 23 C41.56 23 19.12 23 -4 23 C-3.38681207 16.86812073 -2.86438614 11.70662162 -1.4375 5.875 C-1.16808594 4.75867188 -0.89867188 3.64234375 -0.62109375 2.4921875 C-0.41613281 1.66976562 -0.21117188 0.84734375 0 0 Z " fill="#3D3D3D" transform="translate(79,136)"/>
<path d="M0 0 C2.46448685 2.46448685 2.77461686 4.1996212 3.625 7.5625 C3.88539063 8.55378906 4.14578125 9.54507813 4.4140625 10.56640625 C5.82518271 18.8355707 4.59907888 26.29806348 2.875 34.4375 C2.65561768 35.50411865 2.43623535 36.5707373 2.21020508 37.66967773 C-0.32146445 49.825408 -3.13784147 61.91845975 -6 74 C-6.33 74 -6.66 74 -7 74 C-7.0821704 72.14660088 -7.13971265 70.29210418 -7.1875 68.4375 C-7.22230469 67.40496094 -7.25710937 66.37242188 -7.29296875 65.30859375 C-7.0101768 62.11492995 -6.20232185 59.9643919 -4.86206055 57.08764648 C0.85004487 43.25467752 6.37327201 20.84427835 0.96875 6.20703125 C0.6490625 5.47871094 0.329375 4.75039063 0 4 C0 2.68 0 1.36 0 0 Z " fill="#777777" transform="translate(217,27)"/>
<path d="M0 0 C0.66 0 1.32 0 2 0 C3.66123249 6.80850866 2.01632579 12.42192432 0.2890625 19.1015625 C0.00147064 20.25618988 -0.28612122 21.41081726 -0.58242798 22.60043335 C-1.5012371 26.27843669 -2.43766329 29.95167945 -3.375 33.625 C-4.30111968 37.30639784 -5.22369304 40.98867263 -6.14614868 44.67098999 C-6.72075415 46.95887801 -7.29826218 49.24603946 -7.8789978 51.53237915 C-8.14241974 52.57050751 -8.40584167 53.60863586 -8.67724609 54.67822266 C-8.90898529 55.58754547 -9.14072449 56.49686829 -9.37948608 57.43374634 C-9.98686984 59.94569771 -10.51141166 62.46252049 -11 65 C-11.33 65 -11.66 65 -12 65 C-12.27397593 58.48546123 -11.28121452 52.81861264 -9.75 46.5 C-9.52328613 45.53529785 -9.29657227 44.5705957 -9.06298828 43.57666016 C-8.38659415 40.71491966 -7.69662511 37.85687692 -7 35 C-6.80825195 34.21334961 -6.61650391 33.42669922 -6.41894531 32.61621094 C-5.02477871 26.93034751 -3.6049139 21.25162397 -2.0859375 15.59765625 C-0.66759228 10.2357811 0.37855654 5.55216254 0 0 Z " fill="#4D4D4D" transform="translate(93,71)"/>
<path d="M0 0 C1.28831879 3.86495638 0.51662311 5.90456706 -0.43359375 9.85546875 C-0.59038101 10.51710526 -0.74716827 11.17874176 -0.90870667 11.86042786 C-1.41076132 13.9713384 -1.92396835 16.07935533 -2.4375 18.1875 C-2.78003527 19.61896413 -3.12184104 21.05060304 -3.46289062 22.48242188 C-4.30014109 25.99034809 -5.1474136 29.49576556 -6 33 C-6.33 33 -6.66 33 -7 33 C-7.31967614 25.78952715 -7.18065008 20.59690386 -4 14 C-3.13840506 10.87317894 -2.38550168 7.73249915 -1.6484375 4.57421875 C-1 2 -1 2 0 0 Z " fill="#717171" transform="translate(217,68)"/>
<path d="M0 0 C-2.42395621 2.03754776 -4.86613176 4.05194025 -7.3125 6.0625 C-8.00279297 6.64322266 -8.69308594 7.22394531 -9.40429688 7.82226562 C-10.07138672 8.36689453 -10.73847656 8.91152344 -11.42578125 9.47265625 C-12.34484253 10.23461304 -12.34484253 10.23461304 -13.2824707 11.01196289 C-13.84925537 11.33801514 -14.41604004 11.66406738 -15 12 C-15.99 11.67 -16.98 11.34 -18 11 C-16.42898506 7.85797013 -14.23027335 7.07675778 -11 6 C-10.566875 5.195625 -10.13375 4.39125 -9.6875 3.5625 C-7.41614837 0.11341049 -3.98388366 -1.99194183 0 0 Z " fill="#737373" transform="translate(195,161)"/>
<path d="M0 0 C0.66 0 1.32 0 2 0 C1.46048934 6.68993219 0.11293829 12.63460728 -2 19 C-2.33 19 -2.66 19 -3 19 C-2.54240047 12.4491015 -1.7899856 6.3246158 0 0 Z " fill="#545454" transform="translate(79,136)"/>
<path d="M0 0 C0.33 0 0.66 0 1 0 C1.1953125 2.05078125 1.390625 4.1015625 1.5859375 6.15234375 C1.72257813 6.76207031 1.85921875 7.37179688 2 8 C2.66 8.33 3.32 8.66 4 9 C2.68 9.33 1.36 9.66 0 10 C0 6.7 0 3.4 0 0 Z " fill="#5E5E5E" transform="translate(130,201)"/>
<path d="M0 0 C0.78375 0.04125 1.5675 0.0825 2.375 0.125 C0.725 1.775 -0.925 3.425 -2.625 5.125 C-3.615 4.795 -4.605 4.465 -5.625 4.125 C-4.13829365 1.15158729 -3.39577812 0.16170372 0 0 Z " fill="#6B6B6B" transform="translate(182.625,167.875)"/>
</svg>
